<?xml version="1.0" standalone="no"?>
<!DOCTYPE svg PUBLIC "-//W3C//DTD SVG 20010904//EN"
 "http://www.w3.org/TR/2001/REC-SVG-20010904/DTD/svg10.dtd">
<svg version="1.0" xmlns="http://www.w3.org/2000/svg"
 width="860.000000pt" height="998.000000pt" viewBox="0 0 860.000000 998.000000"
 preserveAspectRatio="xMidYMid meet">

<g transform="translate(0.000000,998.000000) scale(0.100000,-0.100000)"
fill="#000000" stroke="none">
<path d="M6275 9960 c-126 -24 -167 -36 -230 -67 -60 -29 -94 -59 -107 -93
-42 -109 -61 -500 -34 -717 9 -73 21 -155 26 -183 14 -74 -26 -366 -53 -388
-7 -5 -46 -19 -88 -31 -62 -17 -81 -19 -108 -10 -62 22 -125 7 -206 -49 l-73
-52 -46 21 c-25 11 -68 23 -95 26 -53 6 -65 1 -190 -78 -49 -31 -60 -34 -135
-34 -102 -1 -192 -30 -284 -92 -57 -38 -92 -52 -245 -94 -541 -148 -1249 -396
-1782 -624 -173 -74 -712 -365 -1041 -560 -176 -105 -391 -250 -494 -331 -119
-95 -399 -378 -504 -509 -293 -367 -484 -755 -560 -1142 -30 -151 -33 -225
-10 -279 33 -79 44 -75 187 64 145 140 217 202 442 382 300 239 499 377 713
494 57 31 145 83 197 116 52 33 99 60 105 60 15 0 84 -75 126 -138 129 -192
203 -447 259 -897 27 -219 58 -331 136 -486 187 -376 571 -618 1074 -678 50
-6 193 -15 319 -21 626 -28 872 -131 1161 -490 71 -88 114 -131 161 -162 35
-23 64 -46 64 -51 0 -4 -8 -24 -19 -45 -44 -89 -101 -291 -121 -437 -5 -33
-13 -318 -19 -633 -6 -315 -13 -596 -17 -625 -4 -28 -20 -78 -35 -109 -16 -31
-40 -94 -53 -140 -33 -113 -37 -121 -95 -217 -79 -130 -95 -180 -96 -291 0
-86 3 -100 29 -147 44 -80 144 -142 303 -189 120 -35 269 -42 428 -19 149 20
221 48 253 95 23 33 24 41 19 140 -3 72 -15 143 -37 229 -21 83 -31 144 -30
185 3 131 1 163 -14 220 -9 37 -12 64 -6 71 19 23 31 108 40 295 5 107 16 222
24 256 20 83 131 346 225 535 43 86 87 191 99 235 29 106 52 304 52 440 0 110
0 112 31 150 41 50 89 151 89 186 0 22 16 39 94 97 116 87 233 210 311 326
l59 89 18 -60 c78 -257 90 -305 95 -384 l5 -85 -57 -45 c-107 -84 -199 -197
-237 -293 -12 -28 -23 -53 -24 -55 -1 -2 -12 2 -24 8 -16 8 -30 8 -55 0 -27
-9 -37 -19 -45 -48 -33 -120 12 -477 86 -687 150 -422 177 -525 176 -690 0
-126 -19 -218 -88 -423 -57 -172 -66 -235 -43 -317 18 -63 65 -122 118 -149
98 -50 179 -58 671 -66 384 -7 482 -11 630 -30 226 -30 457 -32 550 -7 148 40
223 100 223 177 0 84 -55 123 -308 220 -216 82 -371 160 -551 277 -83 54 -173
113 -201 130 -79 51 -78 48 -78 438 0 379 2 395 81 797 61 316 59 354 -25 352
-28 -1 -41 3 -41 12 0 34 35 158 67 238 48 121 66 227 59 348 -6 93 -5 99 20
135 132 193 194 545 165 938 -14 188 -42 400 -77 568 -13 66 -22 122 -20 124
2 2 25 -6 52 -18 78 -33 192 -59 264 -59 58 0 73 4 113 31 89 58 194 212 262
380 26 67 50 108 85 146 65 71 151 202 190 288 48 107 70 204 70 314 0 160
-45 276 -150 393 l-58 64 15 65 c30 126 2 280 -73 401 l-35 58 16 46 c53 157
37 344 -43 499 -50 98 -174 221 -264 264 -57 27 -74 41 -108 91 -47 70 -85 92
-145 89 -39 -3 -48 2 -90 40 -45 41 -48 43 -104 39 l-58 -3 -34 44 c-26 34
-59 57 -135 97 -110 57 -185 74 -254 56 -35 -9 -42 -7 -50 7 -5 10 -14 115
-19 235 -10 207 -9 228 19 512 41 406 37 623 -13 721 -22 42 -82 92 -144 119
-143 64 -416 88 -598 54z m430 -154 c132 -37 189 -80 202 -154 12 -69 8 -368
-6 -509 -14 -141 -62 -387 -84 -429 -35 -66 -80 -116 -121 -135 -92 -40 -389
-33 -477 12 -34 17 -47 33 -80 103 -41 84 -50 124 -89 371 -22 141 -26 327
-11 460 5 44 12 101 15 127 3 26 12 58 20 71 28 41 117 81 220 98 84 13 343 3
411 -15z m-495 -1295 c27 -12 81 -16 247 -19 245 -4 236 -6 370 94 72 55 83
60 88 43 3 -10 8 -99 10 -197 l4 -179 -74 -43 c-41 -23 -97 -49 -125 -57 -48
-14 -55 -13 -192 21 -148 36 -297 82 -381 118 -39 17 -61 38 -118 112 -51 66
-69 96 -65 111 3 11 9 52 12 90 3 39 7 75 9 82 2 7 43 -27 92 -74 48 -47 103
-93 123 -102z m-482 -101 c89 -15 147 -36 222 -80 82 -49 250 -105 511 -171
194 -48 207 -50 257 -39 51 11 143 55 274 129 102 58 219 50 331 -21 48 -31
147 -142 147 -164 0 -9 18 -11 59 -7 l59 6 54 -50 c51 -49 54 -50 83 -37 65
28 135 4 135 -47 0 -15 -15 -18 -103 -24 l-104 -7 -53 40 c-54 41 -158 96
-328 173 -90 40 -95 41 -166 35 -40 -4 -131 -23 -202 -43 -190 -52 -247 -54
-424 -8 -316 81 -378 87 -565 55 -44 -8 -125 -10 -220 -7 -153 5 -210 16 -305
59 -70 32 -165 57 -230 60 -33 1 -60 5 -60 8 0 3 31 22 69 43 50 27 81 37 112
37 55 0 138 -38 202 -92 27 -22 50 -38 52 -36 3 3 -9 26 -26 52 l-30 48 22 24
c27 29 115 74 143 74 12 0 49 -5 84 -10z m-349 -254 c109 -46 196 -59 401 -60
140 0 206 5 273 18 104 22 123 20 352 -39 268 -68 284 -68 560 5 66 17 147 32
180 33 54 2 67 -3 133 -40 40 -23 94 -52 119 -63 74 -33 235 -144 282 -195 86
-93 160 -296 162 -444 2 -174 -50 -198 -239 -112 -221 101 -360 131 -602 131
-265 0 -439 -22 -699 -87 -125 -32 -163 -37 -261 -38 -112 0 -117 1 -190 36
-74 35 -221 131 -332 216 -31 24 -61 43 -67 43 -21 0 -85 -133 -93 -194 -12
-92 -44 -191 -96 -296 -37 -76 -62 -111 -122 -171 -85 -86 -144 -119 -228
-126 -62 -6 -58 -7 -212 75 -127 67 -130 61 -21 -43 144 -139 202 -223 283
-415 99 -235 195 -400 324 -560 l69 -84 95 -12 c165 -21 228 -53 361 -183 112
-110 114 -119 30 -224 -52 -65 -91 -100 -250 -222 -53 -41 -202 -11 -209 43
-2 13 -30 43 -70 76 -132 105 -174 178 -158 278 7 46 15 37 -109 126 -102 74
-193 129 -380 232 -363 200 -487 282 -593 389 -80 81 -118 148 -162 286 -27
84 -31 112 -28 177 3 67 7 82 35 120 133 181 160 237 214 435 46 175 86 240
172 284 104 54 202 31 309 -70 56 -52 69 -61 63 -41 -21 71 -92 158 -172 208
-49 31 -52 44 -28 136 19 73 55 134 115 196 138 142 343 213 595 206 114 -3
138 -6 194 -30z m-1006 -253 c-19 -38 -41 -105 -50 -150 -16 -80 -17 -83 -44
-83 -16 0 -54 -10 -86 -22 -112 -41 -201 -161 -252 -338 -26 -89 -54 -171 -76
-227 -14 -36 -24 -43 -93 -73 -78 -34 -393 -177 -512 -232 -36 -17 -123 -57
-195 -90 -284 -132 -1084 -533 -1365 -685 -515 -280 -1091 -691 -1429 -1020
-63 -62 -116 -111 -118 -110 -6 7 59 272 90 363 131 385 338 706 654 1014 258
253 514 436 977 702 629 360 1325 654 2126 897 209 63 393 118 401 120 3 0
-10 -29 -28 -66z m3488 -73 c30 -6 82 -24 116 -40 113 -56 225 -209 254 -347
17 -85 6 -211 -28 -313 l-29 -86 47 -72 c87 -133 118 -283 85 -411 -9 -36 -21
-70 -27 -77 -5 -6 -39 -29 -75 -50 -59 -34 -142 -110 -132 -120 3 -2 38 11 79
28 89 38 183 44 237 15 72 -39 119 -166 109 -297 -8 -104 -30 -179 -86 -295
-46 -94 -162 -265 -181 -265 -4 0 -20 -39 -35 -87 -61 -199 -204 -385 -311
-408 -69 -14 -216 35 -320 106 l-41 28 -21 123 c-12 69 -22 147 -22 174 0 47
3 53 53 101 67 66 103 83 172 83 113 0 255 33 255 59 0 32 -35 111 -75 166
-84 118 -107 204 -86 320 12 69 32 90 91 100 49 8 45 20 -9 28 -59 8 -171 53
-210 85 l-33 28 70 150 c84 178 94 217 91 351 l-3 103 73 36 c39 19 78 45 86
57 34 54 37 229 5 346 -27 102 -110 241 -197 335 -24 24 -43 47 -43 50 0 9 83
7 141 -4z m-2329 -434 c90 -91 277 -197 418 -237 94 -27 170 -24 352 17 250
55 337 66 563 71 295 7 463 -20 690 -110 77 -31 80 -33 88 -72 12 -55 0 -189
-24 -277 -11 -40 -47 -129 -79 -198 -121 -260 -157 -412 -169 -710 l-6 -145
-55 -7 c-257 -32 -629 -33 -776 -3 -156 33 -450 156 -606 254 -52 34 -56 45
-83 236 -21 145 -23 137 43 178 58 36 134 106 116 108 -5 0 -54 0 -109 -1
-112 -2 -153 9 -243 61 -58 34 -332 296 -332 317 0 6 15 35 34 64 66 105 116
301 102 404 -4 33 -1 52 10 70 9 13 18 24 19 24 2 0 23 -20 47 -44z m-336
-765 c89 -90 183 -166 323 -261 82 -56 96 -70 103 -100 34 -157 68 -384 59
-393 -6 -6 -11 -32 -11 -58 0 -26 -3 -50 -8 -53 -4 -2 -34 2 -66 9 -32 8 -85
17 -119 20 -60 7 -63 9 -107 63 -134 164 -214 312 -286 527 -26 77 -58 163
-73 190 -14 28 -26 53 -26 58 0 4 29 23 65 41 36 19 65 35 66 35 0 1 36 -35
80 -78z m-1446 -217 c45 -104 95 -177 174 -255 116 -116 199 -165 656 -387
212 -104 364 -191 448 -259 19 -15 24 -31 27 -76 5 -77 33 -132 108 -209 54
-55 61 -68 62 -102 0 -61 60 -101 212 -142 8 -2 3 -31 -19 -96 -30 -92 -32
-94 -132 -193 -221 -220 -429 -391 -703 -579 -46 -31 -85 -56 -87 -56 -2 0
-30 -17 -62 -39 -172 -113 -458 -241 -641 -286 -105 -26 -114 -27 -338 -22
-314 6 -487 40 -684 133 -122 57 -201 115 -292 212 -117 124 -208 298 -255
486 -15 58 -15 74 -4 105 45 126 198 406 304 556 101 142 120 168 200 270 125
156 312 364 510 563 157 160 228 227 431 414 22 21 43 38 46 38 3 0 20 -34 39
-76z m3880 -181 c25 -12 53 -24 62 -27 16 -5 16 -8 4 -38 -25 -59 -29 -122
-12 -180 15 -50 31 -75 134 -198 23 -29 42 -58 42 -65 0 -23 -40 -29 -168 -26
-118 2 -125 1 -168 -24 l-46 -27 6 54 c3 29 11 113 16 186 7 82 22 177 40 250
17 64 30 119 30 120 0 2 3 2 8 0 4 -2 27 -13 52 -25z m-1655 -445 c187 -68
436 -127 625 -149 104 -12 566 -7 693 7 l57 6 0 -85 c0 -98 26 -258 75 -470
62 -263 117 -632 135 -906 24 -365 -38 -666 -174 -843 l-34 -46 5 -134 c7
-157 -4 -224 -71 -428 -52 -158 -26 -142 -261 -161 -214 -17 -591 4 -622 35
-14 14 61 141 117 197 59 61 139 99 205 99 41 0 41 -1 24 147 -16 142 -50 265
-129 461 -39 97 -69 183 -66 191 2 9 20 61 39 116 42 125 68 243 107 505 53
359 59 394 76 463 9 37 14 70 11 73 -9 10 -66 -112 -98 -209 -17 -51 -66 -226
-110 -391 -107 -399 -163 -540 -286 -713 -67 -94 -203 -234 -298 -305 -80 -60
-80 -61 -87 -117 -11 -79 -47 -143 -138 -246 -54 -61 -87 -107 -100 -143 -28
-75 -25 -80 22 -34 23 23 46 42 51 42 14 0 1 -231 -17 -321 -37 -176 -92 -328
-214 -591 -92 -197 -107 -266 -121 -561 -6 -127 -11 -171 -22 -179 -37 -25
-351 12 -440 52 l-25 11 12 107 c7 59 20 244 29 412 22 435 50 657 109 870 13
47 27 101 30 121 8 47 77 188 129 264 22 33 89 121 148 195 l107 136 -24 84
c-92 317 -91 687 2 1145 42 207 128 515 143 515 5 0 49 26 97 59 114 75 334
295 334 333 0 48 -32 101 -101 168 -65 63 -69 69 -59 94 5 15 13 58 16 97 5
48 10 66 18 60 6 -4 43 -20 81 -33z m-2132 -2085 c-13 -2 -33 -2 -45 0 -13 2
-3 4 22 4 25 0 35 -2 23 -4z m2496 -1197 c106 -30 219 -39 431 -33 178 6 282
16 529 53 l44 7 -6 -34 c-13 -85 -31 -159 -40 -159 -5 0 -7 -6 -4 -13 2 -7 1
-30 -3 -52 -7 -39 -8 -39 -9 -7 0 18 -6 32 -13 33 -10 0 -10 2 0 6 19 8 4 22
-18 16 -11 -3 -20 -8 -20 -12 0 -3 -23 -7 -52 -9 -29 -1 -55 -7 -59 -14 -4 -6
-36 -12 -76 -12 -37 -1 -73 -5 -80 -9 -15 -9 -471 -11 -543 -2 -30 4 -67 7
-82 7 -15 -1 -30 3 -33 8 -10 16 -25 11 -26 -7 0 -14 -2 -15 -6 -3 -3 8 -10
18 -16 21 -21 14 -38 215 -20 233 8 8 14 7 102 -18z m937 -359 c-6 -60 -33
-167 -35 -139 -1 13 -51 6 -62 -10 -5 -8 -348 -30 -509 -32 -52 0 -131 3 -175
7 -44 5 -96 10 -115 12 -19 2 -38 -1 -41 -6 -7 -12 -46 102 -55 162 -6 33 -4
41 7 37 8 -3 13 -10 12 -16 -2 -6 5 -11 15 -11 9 0 73 -4 142 -10 142 -12 587
-7 640 8 19 5 31 9 25 10 -12 2 16 21 30 21 6 0 3 -5 -5 -11 -12 -8 -10 -10
10 -5 14 2 42 8 63 11 22 4 37 13 37 21 0 8 5 14 11 14 8 0 10 -19 5 -63z
m-923 26 c-7 -2 -19 -2 -25 0 -7 3 -2 5 12 5 14 0 19 -2 13 -5z m707 -277 c0
-11 -19 -15 -25 -6 -3 5 1 10 9 10 9 0 16 -2 16 -4z m176 -18 c-11 -37 -19
-580 -11 -733 7 -135 8 -140 35 -165 15 -14 121 -76 236 -139 115 -63 241
-135 279 -162 39 -26 99 -60 135 -77 36 -16 82 -46 102 -66 20 -20 34 -36 31
-36 -3 0 5 -9 18 -20 19 -16 21 -21 10 -29 -7 -5 -11 -14 -7 -20 10 -15 -11
-85 -33 -112 -17 -21 -26 -23 -101 -21 -45 1 -195 18 -333 37 -283 40 -465 55
-677 55 l-145 0 -4 28 c-3 15 -5 79 -5 143 l-1 117 -90 15 c-104 18 -117 21
-168 40 -57 21 -62 29 -39 73 11 22 30 73 42 113 22 70 23 86 17 255 -10 277
-34 408 -103 575 -19 47 -37 93 -40 101 -4 13 12 14 123 8 285 -14 434 -7 653
32 78 14 83 13 76 -12z m-2087 -848 c115 -10 171 -25 171 -44 0 -7 11 -49 25
-92 39 -122 31 -148 -32 -107 l-26 17 7 -49 c15 -103 50 -225 112 -394 41
-108 39 -136 -11 -179 -51 -45 -115 -56 -284 -48 -241 11 -319 32 -429 113
-46 35 -64 76 -63 146 1 110 63 191 256 335 96 72 98 75 60 68 -116 -21 -115
-21 -115 5 0 52 23 102 75 161 72 83 77 84 254 68z m1331 -586 c0 -8 -5 -12
-10 -9 -6 4 -8 11 -5 16 9 14 15 11 15 -7z m1861 -67 c-10 -9 -11 -8 -5 6 3
10 9 15 12 12 3 -3 0 -11 -7 -18z m-51 -37 c-8 -5 -19 -10 -25 -10 -5 0 -3 5
5 10 8 5 20 10 25 10 6 0 3 -5 -5 -10z m-105 -10 c-3 -5 -1 -10 6 -10 7 0 10
-2 7 -5 -8 -9 -38 6 -32 16 3 5 10 9 15 9 6 0 7 -4 4 -10z m62 -6 c-3 -3 -12
-4 -19 -1 -8 3 -5 6 6 6 11 1 17 -2 13 -5z"/>
</g>
</svg>
